<?xml version="1.0" encoding="UTF-8"?><svg id="a" xmlns="http://www.w3.org/2000/svg" viewBox="0 0 500 317.34"><defs><style>.b{fill:#ff4b00;}.c{fill:#fff;}.d{fill:#333;}</style></defs><path class="c" d="M408.32,158.51C408.32,70.97,337.35,0,249.81,0S91.31,70.97,91.31,158.51h317.01Z"/><polygon class="c" points="500 137.8 422.67 241.35 379.08 241.35 379.08 317.34 198.96 317.34 113.76 260.72 125.64 241.35 77.33 241.35 0 137.8 500 137.8"/><path class="b" d="M387.77,158.51h-66.87c0-29,18.7-54.75,47.42-70.62,12.36,20.65,19.46,44.8,19.46,70.62Z"/><path class="b" d="M354.79,69.07c-34.58,20.07-57.1,52.69-57.1,89.44h-36.1V21.23c37.24,3.09,70.28,21,93.2,47.83Z"/><path class="b" d="M238.4,21.23v137.27h-36.1c0-36.75-22.53-69.35-57.1-89.42,22.9-26.83,55.94-44.76,93.19-47.85Z"/><path class="b" d="M179.11,158.51h-66.87c0-25.81,7.1-49.95,19.46-70.6,28.7,15.87,47.42,41.6,47.42,70.6Z"/><path class="d" d="M358.37,275.93h-146.91l-41.54-27.59,10.07-16.42,37.04,23.35h74.79v-20.83h-44.7v-13.8h69.69l41.56,27.7v-27.7h53.92l46.4-62.13H41.31l46.4,62.13h74.89l-20.75,33.88,63.36,42.11h153.15v-20.71ZM401.91,199.93H98.09l-15.47-20.71h334.75l-15.47,20.71Z"/></svg>