<?xml version="1.0" encoding="UTF-8"?><svg id="a" xmlns="http://www.w3.org/2000/svg" viewBox="0 0 284.98 223.71"><defs><style>.b{fill:none;}.c{fill:#333;}</style></defs><path class="b" d="M252.75,95.69v-10.63h-5.37v-21.27h-5.37v-10.63h-5.37v-10.63h-5.37v-5.32h-5.37v-5.34l-5.53.03h-5.42s0-10.63,0-10.63h-5.17v-5.32h-5.37v-5.32h-10.74v-5.32h-16.12V0h-70.09v5.32h-16.12v5.32h-10.74v5.32h-5.37v5.32h-5.17v10.63h-10.95s0,5.32,0,5.32h-5.37v5.32h-5.37v10.63h-5.37v10.63h-5.37v21.27h-5.37v10.63H0v21.63h16.12v5.32h5.37v5.32h5.37v5.32h26.86v10.63h10.74v5.32h5.37v5.32h5.37v10.63h5.37v5.32h5.37v5.32h5.37v5.32h5.37v5.32h5.37v5.32h5.37v5.32h5.37v10.63h10.74v5.32h5.37v5.32h5.37v5.32h69.84v.06h16.37v-5.37h5.37v-42.73h-5.37v-5.37h-16.12v-15.69h5.37v-5.32h5.37v-5.32h5.37v-10.63h37.6v-5.32h5.37v-5.32h5.37v-5.32h16.12v-21.63h-32.23ZM166.54,138.22h-5.37v10.63h-26.6v-5.32h-10.74v-5.32h-5.37v-4.95h48.09v4.95Z"/><polygon class="c" points="102.4 90.56 102.4 101.19 37.73 101.19 37.73 90.56 43.1 90.56 43.1 69.3 48.48 69.3 48.48 58.66 53.85 58.66 53.85 48.03 59.22 48.03 59.22 42.71 64.59 42.71 64.59 37.4 64.8 37.4 64.8 37.4 70.17 37.4 70.17 42.72 75.54 42.72 75.54 53.35 80.91 53.35 80.91 58.66 86.28 58.66 86.28 63.98 91.66 63.98 91.66 74.61 97.03 74.61 97.03 90.56 102.4 90.56"/><polygon class="c" points="139.8 5.5 139.8 101.19 107.77 101.19 107.77 79.93 102.4 79.93 102.4 69.3 97.03 69.3 97.03 58.66 91.66 58.66 91.66 53.35 86.28 53.35 86.28 42.72 80.91 42.72 80.91 37.4 75.54 37.4 75.54 26.77 80.71 26.77 80.71 21.45 86.08 21.45 86.08 16.13 96.83 16.13 96.83 10.82 112.94 10.82 112.94 5.5 139.8 5.5"/><polygon class="c" points="209.44 26.77 209.44 37.4 204.07 37.4 204.07 42.72 198.69 42.72 198.69 53.35 193.32 53.35 193.32 58.66 187.95 58.66 187.95 69.3 182.58 69.3 182.58 79.93 177.21 79.93 177.21 101.19 145.18 101.19 145.18 5.5 172.04 5.5 172.04 10.82 188.15 10.82 188.15 16.13 198.9 16.13 198.9 21.45 204.27 21.45 204.27 26.77 209.44 26.77"/><polygon class="c" points="247.25 90.56 247.25 101.19 182.58 101.19 182.58 90.56 187.95 90.56 187.95 74.61 193.32 74.61 193.32 63.98 198.69 63.98 198.69 58.66 204.07 58.66 204.07 53.35 209.44 53.35 209.44 42.72 214.81 42.72 214.81 37.4 220.18 37.4 220.18 37.4 220.38 37.4 220.38 42.71 225.76 42.71 225.76 48.03 231.13 48.03 231.13 58.66 236.5 58.66 236.5 69.3 241.87 69.3 241.87 90.56 247.25 90.56"/><path class="c" d="M182.58,101.19H5.5v10.63h16.12v5.32h5.37v5.32h5.37v5.32h220.26v-5.32h5.37v-5.32h5.37v-5.32h16.12v-10.63h-96.9ZM252.62,117.14h-5.37v5.32H37.73v-5.32h-5.37v-5.32h220.26v5.32Z"/><path class="c" d="M193.52,159.67h5.37v-10.63h5.37v-5.32h5.37v-5.32h5.37v-10.63h-5.37v5.32h-5.37v5.32h-5.37v5.32h-5.37v5.32h-5.37v21.32h5.37v-10.69Z"/><polygon class="c" points="118.31 191.57 118.31 180.94 112.94 180.94 112.94 175.62 107.57 175.62 107.57 170.31 102.2 170.31 102.2 164.99 96.83 164.99 96.83 159.67 91.45 159.67 91.45 149.04 86.08 149.04 86.08 143.72 80.71 143.72 80.71 138.41 75.34 138.41 75.34 133.09 69.97 133.09 69.97 127.78 59.22 127.78 59.22 138.41 69.97 138.41 69.97 143.72 75.34 143.72 75.34 149.04 80.71 149.04 80.71 159.67 86.08 159.67 86.08 164.99 91.45 164.99 91.45 170.31 96.83 170.31 96.83 175.62 102.2 175.62 102.2 180.94 107.57 180.94 107.57 186.25 112.94 186.25 112.94 191.57 118.31 191.57"/><polygon class="c" points="91.45 138.41 96.83 138.41 96.83 143.72 102.2 143.72 102.2 149.04 112.94 149.04 112.94 154.36 123.69 154.36 123.69 159.67 139.8 159.67 139.8 164.99 172.04 164.99 172.04 149.04 177.41 149.04 177.41 138.41 182.78 138.41 182.78 133.09 193.52 133.09 193.52 127.78 177.41 127.78 177.41 133.09 172.04 133.09 172.04 143.72 166.66 143.72 166.66 154.36 161.29 154.36 161.29 159.67 150.55 159.67 150.55 154.36 129.06 154.36 129.06 149.04 118.31 149.04 118.31 143.72 112.94 143.72 112.94 138.41 102.2 138.41 102.2 133.09 96.83 133.09 96.83 127.78 80.71 127.78 80.71 133.09 91.45 133.09 91.45 138.41"/><rect class="c" x="193.52" y="170.36" width="5.37" height="5.37"/><path class="c" d="M215.01,181.11v-5.37h-16.12v5.37h5.37v26.36h-5.37v5.37h-48.41v-5.32h-10.69v-5.32h-5.37v-5.32h-5.37v-5.32h-10.74v10.63h10.74v5.32h5.37v5.32h5.37v5.32h69.84v.06h5.37v-5.37h5.37v-31.73h-5.37Z"/></svg>