<?xml version="1.0" encoding="UTF-8"?>
<svg id="Layer_1" xmlns="http://www.w3.org/2000/svg" version="1.1" viewBox="0 0 323.3 205.2">
  <!-- Generator: Adobe Illustrator 30.2.1, SVG Export Plug-In . SVG Version: 2.1.1 Build 1)  -->
  <defs>
    <style>
      .st0 {
        fill: #fff;
      }
      .st1 {
        fill: #333;
      }
    </style>
  </defs>
  <g>
    <path class="st0" d="M264.02,102.49C264.02,45.89,218.13,0,161.53,0S59.04,45.89,59.04,102.49h204.98Z"/>
    <polygon class="st0" points="323.3 89.11 273.3 156.06 245.11 156.06 245.11 205.2 128.65 205.2 73.56 168.59 81.24 156.06 50 156.06 0 89.11 323.3 89.11"/>
  </g>
  <g>
    <g>
      <path class="st1" d="M250.73,102.49h-43.24c0-18.75,12.09-35.4,30.66-45.66,7.99,13.35,12.58,28.97,12.58,45.66Z"/>
      <path class="st1" d="M229.41,44.66c-22.36,12.98-36.92,34.07-36.92,57.83h-23.34V13.73c24.08,2,45.44,13.58,60.26,30.93h0Z"/>
      <path class="st1" d="M154.15,13.73v88.76h-23.34c0-23.76-14.57-44.84-36.92-57.82,14.81-17.35,36.17-28.94,60.26-30.94Z"/>
      <path class="st1" d="M115.81,102.49h-43.24c0-16.69,4.59-32.3,12.58-45.65,18.56,10.26,30.66,26.9,30.66,45.65h0Z"/>
    </g>
    <path class="st1" d="M231.72,178.42h-94.99l-26.86-17.84,6.51-10.62,23.95,15.1h48.36v-13.47h-28.9v-8.92h45.06l26.87,17.91v-17.91h34.87l30-40.17H26.71l30,40.17h48.43l-13.42,21.91,40.97,27.23h99.03v-13.39ZM259.87,129.28H63.42l-10-13.39h216.45l-10,13.39Z"/>
  </g>
</svg>