<?xml version="1.0" encoding="UTF-8"?><svg id="a" xmlns="http://www.w3.org/2000/svg" viewBox="0 0 365.84 304.53" fill="#ffffff"><path d="M70.45,99.73v-11.09h11.09v-33.2h11.09V22.18h-22.18v11.09h-11.09V11.09h88.64v22.18h-11.09v-11.09h-22.18v33.27h-11.09v33.2h11.09v11.09h-44.28Z"/><path d="M141.59,99.73v-33.27h11.09V22.18h11.09v-11.09h-11.09V0h33.19v22.18h-11.02v22.18h11.02v11.09h-11.02v11.02h-11.09v33.27h-22.18ZM196.96,99.73v-22.18h11.09v-33.2h-22.18v-11.09h33.27v11.09h11.09v33.2h-11.09v11.09h11.09v11.09h-33.27Z"/><path d="M251.1,99.73v-11.09h-11.09v-33.2h11.09v-11.09h11.09v22.11h11.09v11.09h-11.09v11.09h33.2v11.09h-44.28ZM273.28,66.46v-11.02h11.02v-11.09h-22.11v-11.09h33.2v11.09h11.09v11.09h-11.09v11.02h-22.11ZM295.38,88.64v-11.09h11.09v11.09h-11.09Z"/><path d="M0,202.13v-11.09h11.09v-33.19h11.09v-33.27h-11.09v-11.09h77.55v22.18h-11.09v-11.09h-33.27v22.18h33.27v22.11h-11.09v-11.02h-33.19v33.19h11.02v11.09H0Z"/><path d="M101.95,202.13v-11.09h-11.09v-22.18h11.09v-22.11h-11.09v-11.09h33.27v33.2h-11.09v22.18h11.09v11.09h-22.18ZM113.04,124.58v-11.09h22.11v11.09h-22.11ZM124.13,191.04v-11.09h11.02v11.09h-11.02Z"/><path d="M134.49,202.13v-22.18h11.09v-22.11h-11.09v-11.09h11.09v-11.09h22.18v11.09h11.02v11.09h-11.02v22.11h-11.09v22.18h-22.18ZM189.86,202.13v-22.18h11.09v-33.19h-22.18v-11.09h33.27v11.09h11.09v33.19h-11.09v11.09h11.09v11.09h-33.27Z"/><path d="M244,202.13v-11.09h-11.09v-33.19h11.09v-11.09h11.09v-11.09h44.28v11.09h11.09v22.11h-11.09v22.18h11.09v11.09h-33.27v-11.09h-11.02v-11.09h11.02v-11.09h11.09v-22.11h-22.11v11.09h-11.09v33.19h11.09v11.09h-22.18ZM310.46,191.04v-11.09h11.09v11.09h-11.09Z"/><path d="M332.64,202.13v-11.09h-11.09v-33.19h11.09v-33.27h11.09v-11.09h-11.09v-11.09h33.2v22.18h-11.02v33.27h-11.09v33.19h22.11v11.09h-33.2Z"/><path d="M73.65,304.53v-11.09h11.09v-33.2h11.09v-33.27h-22.18v11.09h-11.09v-22.18h88.64v22.18h-11.09v-11.09h-22.18v33.27h-11.09v33.2h11.09v11.09h-44.28Z"/><path d="M148.17,304.53v-11.09h-11.09v-33.2h11.09v-11.09h11.09v-11.09h44.28v11.09h11.09v22.11h-11.09v22.18h11.09v11.09h-33.27v-11.09h-11.02v-11.09h11.02v-11.09h11.09v-22.11h-22.11v11.09h-11.09v33.2h11.09v11.09h-22.18ZM214.63,293.44v-11.09h11.09v11.09h-11.09Z"/><path d="M236.81,304.53v-11.09h-11.09v-33.2h11.09v-33.27h11.09v-11.09h22.11v11.09h-11.02v22.18h11.02v11.09h-22.11v33.2h22.11v11.09h-33.2ZM270.01,293.44v-11.09h11.09v-33.2h-11.09v-11.09h22.18v11.09h11.09v33.2h-11.09v11.09h-22.18Z"/></svg>